<?xml version="1.0" encoding="utf-8"?>
<!-- Generator: Adobe Illustrator 22.0.0, SVG Export Plug-In . SVG Version: 6.00 Build 0)  -->
<svg version="1.1" id="Layer_1" xmlns="http://www.w3.org/2000/svg" xmlns:xlink="http://www.w3.org/1999/xlink" x="0px" y="0px"
	 viewBox="0 0 200 100" style="enable-background:new 0 0 200 100;" xml:space="preserve">
<g>
	<path d="M37.3,44.2l-3.1,3.1l-1.8-1.8V26.2l4.9,4.9V44.2z M37.3,66.2l-4.9,4.9V51l1.8-1.9l3.1,3.1V66.2z M56.5,27.8l-2.4,2.5H38.2
		l-4.8-4.9h20.7L56.5,27.8z M54.7,45.8l2.5,2.5l-2.5,2.5H37.6l-2.4-2.5l2.4-2.5H54.7z M59.9,45.4l-1.8,1.8L55,44.2V31.1l2.5-2.5
		l2.5,2.5V45.4z"/>
	<path d="M67.7,45.4V25.3l4.9,4.9v14l-3.1,3.1L67.7,45.4z M72.6,52.2v14l-4.9,4.9V51l1.8-1.9L72.6,52.2z M90,45.8l2.5,2.5L90,50.7
		H72.9l-2.4-2.5l2.4-2.5H90z M90.2,44.2v-14l4.9-4.9v20.2l-1.8,1.8L90.2,44.2z M95.1,51v20.1l-4.9-4.9v-14l3.1-3.1L95.1,51z"/>
	<path d="M107.9,44.2l-3.1,3.1l-1.8-1.8V26.2l4.9,4.9V44.2z M107.9,65.3l-4.9,4.9V51l1.8-1.9l3.1,3.1V65.3z M129.5,25.3l-4.8,4.9
		h-15.9l-4.8-4.9H129.5z M129.5,71.1h-25.6l4.8-4.9h15.9L129.5,71.1z M130.4,45.4l-1.8,1.8l-3.1-3.1V31.1l4.9-4.9V45.4z M130.4,70.2
		l-4.9-4.9V52.2l3.1-3.1l1.8,1.9V70.2z"/>
	<path d="M143.2,44.2l-3.1,3.1l-1.8-1.8V31.1l2.4-2.5l2.5,2.5V44.2z M140.7,71.1l-2.4-2.4l2.4-2.5h19.2l2.4,2.5l-2.4,2.4H140.7z
		 M160.5,45.8l2.5,2.5l-2.5,2.5h-17.1l-2.4-2.5l2.4-2.5H160.5z M165.7,27.8l-2.5,2.5H144l-2.4-2.5l2.4-2.4h19.2L165.7,27.8z
		 M165.7,65.3l-2.5,2.5l-2.5-2.5V52.2l3.1-3.1l1.8,1.9V65.3z"/>
</g>
<g>
</g>
<g>
</g>
<g>
</g>
<g>
</g>
<g>
</g>
<g>
</g>
<g>
</g>
<g>
</g>
<g>
</g>
<g>
</g>
<g>
</g>
<g>
</g>
<g>
</g>
<g>
</g>
<g>
</g>
</svg>
